<svg version="1.1" id="Layer_1" xmlns="http://www.w3.org/2000/svg" width="32" height="32"
	 viewBox="0 0 32 32">
<style type="text/css">
	.st0{fill:#DBE8D4;}
</style>
<path class="st0" d="M29.1,2H3.9C2.8,2,2,2.8,2,3.9v25.2c0,1,0.8,1.9,1.9,1.9h25.2c1,0,1.9-0.8,1.9-1.9V3.9C31,2.8,30.1,2,29.1,2z
	 M11.5,24.9H7.6V13h3.8V24.9z M9.5,11.4L9.5,11.4c-1.3,0-2.1-0.9-2.1-2c0-1.2,0.9-2,2.2-2c1.3,0,2.1,0.9,2.2,2
	C11.7,10.5,10.9,11.4,9.5,11.4z M25.3,24.9h-3.8v-6.3c0-1.6-0.6-2.7-1.9-2.7c-1.1,0-1.7,0.7-2,1.4c-0.1,0.3-0.1,0.6-0.1,1v6.6h-3.8
	c0,0,0-10.7,0-11.9h3.8v1.7c0.5-0.8,1.4-2,3.5-2c2.5,0,4.4,1.7,4.4,5.3L25.3,24.9L25.3,24.9z"/>
</svg>
